# xmcd
#
# Track frame offsets:
#  150
#  14225
#  29226
#  59616
#  75358
#  93971
#  103466
#  128840
#  146466
#  160366
#  170615
#
# Disc length: 2512 seconds
#
# Revision: 0
# Processed by: cddbd v1.5.1PL2 Copyright (c) Steve Scherf et al.
# Submitted via: Collectorz.com_Music_Collector 6.9
#
DISCID=9d09ce0b
DTITLE=Little Ray and The Blues Sonics - Going Back To Eunice
DYEAR=2005
DGENRE=Blues -  Blues Texas Style
TTITLE0=Mia
TTITLE1=Going Back To Eunice
TTITLE2=All Of My Life
TTITLE3=Don't You Come Around Here No More
TTITLE4=Power Of The People
TTITLE5=Zing Zing
TTITLE6=We Will Carry On
TTITLE7=When I Call You On The Telephone
TTITLE8=Little Girl
TTITLE9=I'm Just A Fool To Care
TTITLE10=Floyd's Boogie
EXTD=
EXTT0=
EXTT1=
EXTT2=
EXTT3=
EXTT4=
EXTT5=
EXTT6=
EXTT7=
EXTT8=
EXTT9=
EXTT10=
PLAYORDER=
